# xmcd
#
# Track frame offsets: 
#        150
#        24979
#        40397
#        79718
#        84780
#        94705
#        110991
#        125700
#        143340
#
# Disc length: 2207 seconds
#
# Revision: 0
# Processed by: cddbd v1.4PL0 Copyright (c) Steve Scherf et al.
# Submitted via: ExactAudioCopy v0.90b4
#
DISCID=69089d09
DTITLE=Johnny Copeland - Bringin' It All Back Home
DYEAR=1986
DGENRE=Blues
TTITLE0=Kasavubu
TTITLE1=The Jungle
TTITLE2=Ngote
TTITLE3=Djeli, Djeli Blues
TTITLE4=Djeli, Djeli Blues (Continued)
TTITLE5=Abidjan
TTITLE6=Bozalimalamu
TTITLE7=Same Thing
TTITLE8=Conakry
EXTD=
EXTT0=
EXTT1=
EXTT2=
EXTT3=
EXTT4=
EXTT5=
EXTT6=
EXTT7=
EXTT8=
PLAYORDER=
